#!OML:ASF I:\Random Stuff\random\construction\7_22_03\Session 2\subj1.ASF
:FULLY-SPECIFIED
:DEGREES
818
root -7.40168 17.6988 -0.917128 -161.675 85.0998 -170.708
lowerback 3.86146 -0.373655 3.0158
upperback 0.980332 -0.283992 2.80554
thorax -1.15995 -0.122916 1.20228
lowerneck -18.3839 -7.19233 -6.722
upperneck 39.9657 -8.37531 3.40966
head 18.7197 -3.35913 1.20766
rclavicle 1.59028e-014 -4.77083e-015
rhumerus -53.6723 66.8588 -96.477
rradius 54.1141
rwrist 23.8275
rhand -29.4494 55.4652
rfingers 7.12502
rthumb -2.78572 25.5036
lclavicle 1.59028e-014 -4.77083e-015
lhumerus -35.6466 -29.1407 101.254
lradius 71.7235
lwrist -1.16776
lhand -19.4751 45.8693
lfingers 7.12502
lthumb 6.84657 -284.261
rfemur -12.9597 16.0283 18.8008
rtibia 18.5799
rfoot -11.8004 -18.5095
rtoes -15.7425
lfemur -19.0207 -20.9029 -11.6005
ltibia 22.6454
lfoot -13.1916 22.5581
ltoes -27.6183
819
root -7.39822 17.6989 -0.911011 -161.068 85.0537 -170.044
lowerback 3.83733 -0.391778 3.0738
upperback 1.05336 -0.305627 2.88875
thorax -1.07135 -0.1313 1.25598
lowerneck -18.4109 -7.17519 -6.70331
upperneck 39.9185 -8.28898 3.24986
head 18.6776 -3.34764 1.14525
rclavicle -4.77083e-015 0
rhumerus -52.8872 66.5414 -95.7714
rradius 53.6236
rwrist 23.4432
rhand -29.3048 55.4052
rfingers 7.12502
rthumb -2.6461 25.4418
lclavicle -4.77083e-015 0
lhumerus -35.5052 -28.9812 101.237
lradius 71.4675
lwrist -1.08573
lhand -19.4766 45.9785
lfingers 7.12502
lthumb 6.84509 -284.152
rfemur -12.8241 15.9565 18.9256
rtibia 18.4567
rfoot -11.7334 -18.4546
rtoes -15.9165
lfemur -18.9936 -20.7404 -11.5526
ltibia 22.7205
lfoot -13.0885 22.3851
ltoes -28.144
820
root -7.39498 17.6989 -0.907154 -161.61 85.042 -170.561
lowerback 3.82364 -0.357212 3.116
upperback 1.07358 -0.258729 2.89619
thorax -1.04305 -0.1073 1.23764
lowerneck -18.3429 -7.20604 -6.74798
upperneck 39.8954 -8.2776 3.15433
head 18.6408 -3.36443 1.1119
rclavicle 1.78906e-015 5.56597e-015
rhumerus -52.1457 65.9278 -95.0553
rradius 53.1594
rwrist 23.3269
rhand -29.1387 55.2668
rfingers 7.12502
rthumb -2.48564 25.3015
lclavicle 1.78906e-015 5.56597e-015
lhumerus -35.4961 -28.9806 101.335
lradius 71.2441
lwrist -1.06965
lhand -19.4576 46.1984
lfingers 7.12502
lthumb 6.86343 -283.933
rfemur -12.7351 15.9268 18.9105
rtibia 18.3788
rfoot -11.6553 -18.4329
rtoes -16.0984
lfemur -18.9791 -20.5354 -11.6302
ltibia 22.768
lfoot -13.0211 22.1804
ltoes -28.4836
821
root -7.39107 17.6984 -0.903213 -161.979 85.0073 -170.902
lowerback 3.83906 -0.336234 3.17946
upperback 1.07077 -0.226583 2.90616
thorax -1.05475 -0.0911399 1.21099
lowerneck -18.2504 -7.22303 -6.70825
upperneck 39.8608 -8.25175 2.99341
head 18.5777 -3.37263 1.03706
rclavicle 5.56597e-015 1.66979e-014
rhumerus -51.5656 65.297 -94.4843
rradius 52.7352
rwrist 23.3123
rhand -29.0554 54.8455
rfingers 7.12502
rthumb -2.40523 24.8793
lclavicle 5.56597e-015 1.66979e-014
lhumerus -35.5894 -28.9604 101.459
lradius 71.1357
lwrist -1.02695
lhand -19.2467 46.7034
lfingers 7.12502
lthumb 7.067 -283.435
rfemur -12.6727 15.8725 18.9277
rtibia 18.3753
rfoot -11.5952 -18.4536
rtoes -16.3654
lfemur -18.9381 -20.4015 -11.6758
ltibia 22.7667
lfoot -12.9708 22.0327
ltoes -28.6388
822
root -7.38703 17.698 -0.898123 -161.927 84.9621 -170.83
lowerback 3.83619 -0.37452 3.1812
upperback 1.07477 -0.275505 2.9629
thorax -1.0489 -0.114832 1.27069
lowerneck -18.2893 -7.16408 -6.81067
upperneck 39.9959 -8.165 3.12541
head 18.6811 -3.32862 1.13777
rclavicle 6.16232e-015 -9.54166e-015
rhumerus -50.7744 64.7093 -93.7886
rradius 52.3932
rwrist 22.7227
rhand -29.2516 54.8017
rfingers 7.12502
rthumb -2.59472 24.8377
lclavicle 6.16232e-015 -9.54166e-015
lhumerus -35.6461 -28.7379 101.493
lradius 71.0503
lwrist -0.978085
lhand -19.221 46.813
lfingers 7.12502
lthumb 7.09185 -283.326
rfemur -12.6541 15.8104 18.9856
rtibia 18.425
rfoot -11.623 -18.4713
rtoes -16.3963
lfemur -18.8962 -20.3341 -11.6597
ltibia 22.7308
lfoot -12.8867 21.9539
ltoes -28.9724
823
root -7.38316 17.6979 -0.893763 -162.403 84.9563 -171.295
lowerback 3.81498 -0.404028 3.1154
upperback 1.08449 -0.317799 2.99866
thorax -1.02654 -0.135389 1.34611
lowerneck -18.2915 -7.0824 -6.60735
upperneck 40.0189 -8.05339 2.97996
head 18.6601 -3.27309 1.05881
rclavicle 1.0138e-014 3.18055e-014
rhumerus -49.7224 63.8432 -92.8933
rradius 52.0518
rwrist 21.4126
rhand -29.2287 55.058
rfingers 7.12502
rthumb -2.57257 25.0938
lclavicle 1.0138e-014 3.18055e-014
lhumerus -35.6919 -28.5088 101.509
lradius 70.972
lwrist -0.949809
lhand -19.2638 46.5639
lfingers 7.12502
lthumb 7.05051 -283.574
rfemur -12.662 15.8171 18.9662
rtibia 18.5008
rfoot -11.6739 -18.4922
rtoes -16.2991
lfemur -18.8498 -20.3001 -11.7034
ltibia 22.6765
lfoot -12.8274 21.9385
ltoes -29.1377
824
root -7.37901 17.6971 -0.890213 -163.635 84.9499 -172.482
lowerback 3.81471 -0.402579 3.03279
upperback 1.12267 -0.320379 3.00439
thorax -0.986682 -0.136039 1.39815
lowerneck -18.361 -7.0931 -6.5906
upperneck 40.0976 -8.06116 2.96025
head 18.7245 -3.27219 1.04411
rclavicle 3.18055e-015 3.26007e-014
rhumerus -48.6221 62.6751 -91.9195
rradius 51.6648
rwrist 19.8681
rhand -29.0592 55.3463
rfingers 7.12502
rthumb -2.40888 25.3802
lclavicle 3.18055e-015 3.26007e-014
lhumerus -35.7353 -28.4124 101.59
lradius 70.9343
lwrist -0.834993
lhand -19.3539 46.3195
lfingers 7.12502
lthumb 6.96351 -283.815
rfemur -12.6244 15.8973 18.8866
rtibia 18.592
rfoot -11.7116 -18.6161
rtoes -16.3362
lfemur -18.7507 -20.2642 -11.8384
ltibia 22.6068
lfoot -12.7625 21.8888
ltoes -29.2562
825
root -7.37452 17.6963 -0.886757 -164.906 84.8953 -173.71
lowerback 3.82627 -0.398314 3.0083
upperback 1.15896 -0.31684 2.98516
thorax -0.955846 -0.133877 1.39181
lowerneck -18.3856 -7.1505 -6.64418
upperneck 40.1086 -8.14296 2.99596
head 18.751 -3.30633 1.05176
rclavicle 1.59028e-015 -1.11319e-014
rhumerus -47.4668 61.2639 -90.8594
rradius 51.3572
rwrist 18.5434
rhand -29.6217 55.658
rfingers 7.12502
rthumb -2.95209 25.6987
lclavicle 1.59028e-015 -1.11319e-014
lhumerus -35.7816 -28.3898 101.66
lradius 70.9275
lwrist -0.726338
lhand -19.3944 46.2473
lfingers 7.12502
lthumb 6.92446 -283.886
rfemur -12.5838 15.9371 18.8194
rtibia 18.6899
rfoot -11.7648 -18.7728
rtoes -16.3807
lfemur -18.6583 -20.2028 -11.9696
ltibia 22.5317
lfoot -12.7642 21.744
ltoes -29.1819
826
root -7.37007 17.697 -0.88428 -165.961 84.847 -174.76
lowerback 3.83492 -0.409889 3.02562
upperback 1.16072 -0.332354 2.95049
thorax -0.959127 -0.141929 1.34721
lowerneck -18.3215 -7.15189 -6.66391
upperneck 40.0191 -8.15591 3.02549
head 18.6841 -3.31406 1.067
rclavicle -2.78299e-015 3.97569e-015
rhumerus -46.226 59.6693 -89.7464
rradius 51.1724
rwrist 17.1381
rhand -30.7268 55.6527
rfingers 7.12502
rthumb -4.01934 25.7108
lclavicle -2.78299e-015 3.97569e-015
lhumerus -35.8341 -28.3292 101.701
lradius 70.9197
lwrist -0.694327
lhand -19.394 46.4274
lfingers 7.12502
lthumb 6.92481 -283.706
rfemur -12.5924 15.8964 18.7499
rtibia 18.7875
rfoot -11.8428 -18.8283
rtoes -16.2552
lfemur -18.6036 -20.1562 -12.0724
ltibia 22.4618
lfoot -12.8258 21.6041
ltoes -28.8277
827
root -7.36689 17.6973 -0.882773 -166.702 84.8286 -175.512
lowerback 3.84551 -0.42695 3.0566
upperback 1.14368 -0.353021 2.94019
thorax -0.982784 -0.152635 1.3204
lowerneck -18.2942 -7.12747 -6.74341
upperneck 40.0257 -8.13433 3.13972
head 18.6938 -3.3007 1.14104
rclavicle 4.96962e-015 -2.70347e-014
rhumerus -45.0837 57.9865 -88.7104
rradius 51.2124
rwrist 15.2168
rhand -32.0956 55.182
rfingers 7.12502
rthumb -5.34108 25.2693
lclavicle 4.96962e-015 -2.70347e-014
lhumerus -35.8767 -28.2224 101.776
lradius 70.8708
lwrist -0.600732
lhand -19.5569 46.631
lfingers 7.12502
lthumb 6.76761 -283.497
rfemur -12.6289 15.8586 18.6919
rtibia 18.8764
rfoot -11.8767 -18.8578
rtoes -16.4447
lfemur -18.5656 -20.1181 -12.1468
ltibia 22.3969
lfoot -12.8011 21.5189
ltoes -28.7009
828
root -7.36556 17.6955 -0.881406 -166.934 84.8024 -175.758
lowerback 3.86295 -0.431358 3.11946
upperback 1.12542 -0.353947 2.95623
thorax -1.01159 -0.153194 1.30201
lowerneck -18.2513 -7.11077 -6.76499
upperneck 39.9941 -8.07967 3.09026
head 18.6568 -3.29084 1.13407
rclavicle 6.55989e-015 7.95139e-016
rhumerus -44.111 56.2077 -87.7946
rradius 51.4702
rwrist 13.1547
rhand -33.6742 54.7074
rfingers 7.12502
rthumb -6.86509 24.8387
lclavicle 6.55989e-015 7.95139e-016
lhumerus -35.9142 -28.1966 101.875
lradius 70.8268
lwrist -0.39217
lhand -19.7959 46.6774
lfingers 7.12502
lthumb 6.53686 -283.443
rfemur -12.6662 15.8676 18.679
rtibia 18.9431
rfoot -11.8657 -18.9195
rtoes -16.6129
lfemur -18.5639 -20.1149 -12.1574
ltibia 22.3453
lfoot -12.7145 21.5209
ltoes -28.749
829
root -7.36418 17.6956 -0.87958 -167.122 84.7681 -175.969
lowerback 3.86518 -0.455041 3.14243
upperback 1.1112 -0.382266 2.9974
thorax -1.02735 -0.167105 1.33297
lowerneck -18.3251 -7.08501 -6.68277
upperneck 40.1139 -8.01874 2.98851
head 18.7308 -3.26311 1.08484
rclavicle 6.75868e-015 5.56597e-015
rhumerus -43.2313 54.4823 -86.9927
rradius 51.7548
rwrist 11.5575
rhand -35.1098 53.9738
rfingers 7.12502
rthumb -8.25074 24.1549
lclavicle 6.75868e-015 5.56597e-015
lhumerus -35.8955 -28.1151 101.948
lradius 70.7412
lwrist -0.268132
lhand -19.9153 46.5145
lfingers 7.12502
lthumb 6.42155 -283.603
rfemur -12.6943 15.8967 18.6642
rtibia 18.9817
rfoot -11.9131 -18.9646
rtoes -16.2117
lfemur -18.5881 -20.1498 -12.1522
ltibia 22.317
lfoot -12.6079 21.559
ltoes -28.9923
830
root -7.36155 17.6968 -0.87738 -167.316 84.7406 -176.186
lowerback 3.86522 -0.485285 3.15243
upperback 1.09425 -0.419487 3.04942
thorax -1.04449 -0.185399 1.38278
lowerneck -18.3261 -7.06844 -6.70362
upperneck 40.1878 -7.94009 2.89823
head 18.7651 -3.24534 1.06389
rclavicle 2.40529e-014 2.62396e-014
rhumerus -42.4323 52.8263 -86.3156
rradius 51.9321
rwrist 10.5385
rhand -36.1516 52.8352
rfingers 7.12502
rthumb -9.25612 23.0583
lclavicle 2.40529e-014 2.62396e-014
lhumerus -35.8681 -27.9721 102.018
lradius 70.6098
lwrist -0.32253
lhand -19.916 46.3913
lfingers 7.12502
lthumb 6.42095 -283.726
rfemur -12.7114 15.8865 18.6536
rtibia 19.0072
rfoot -11.9618 -18.9821
rtoes -16.0596
lfemur -18.5988 -20.1728 -12.1546
ltibia 22.2958
lfoot -12.5484 21.5644
ltoes -29.2341
831
root -7.35966 17.6961 -0.875917 -166.97 84.7425 -175.834
lowerback 3.91017 -0.472521 3.24394
upperback 1.06986 -0.393323 3.08991
thorax -1.0951 -0.172342 1.37258
lowerneck -18.2137 -7.0666 -6.81071
upperneck 40.1809 -7.89859 2.90803
head 18.7363 -3.24422 1.09982
rclavicle 1.37161e-014 5.08889e-014
rhumerus -41.7472 51.1075 -85.7543
rradius 51.912
rwrist 10.3882
rhand -37.0443 52.0606
rfingers 7.12502
rthumb -10.1174 22.3239
lclavicle 1.37161e-014 5.08889e-014
lhumerus -35.9247 -27.964 102.13
lradius 70.5554
lwrist -0.355626
lhand -19.9393 46.5139
lfingers 7.12502
lthumb 6.39844 -283.603
rfemur -12.7156 15.8611 18.7012
rtibia 19.0375
rfoot -11.9354 -18.9745
rtoes -16.2198
lfemur -18.57 -20.1957 -12.1143
ltibia 22.2619
lfoot -12.539 21.6028
ltoes -29.3179
